<svg width="1600" height="1200" viewBox="0 0 1600 1200" fill="none" xmlns="http://www.w3.org/2000/svg">
  <defs>
    <linearGradient id="bg" x1="188" y1="94" x2="1375" y2="1120" gradientUnits="userSpaceOnUse">
      <stop offset="0" stop-color="#070A08"/>
      <stop offset="0.52" stop-color="#111915"/>
      <stop offset="1" stop-color="#090B0A"/>
    </linearGradient>
    <radialGradient id="glowLime" cx="0" cy="0" r="1" gradientUnits="userSpaceOnUse" gradientTransform="translate(1252 220) rotate(125.571) scale(480.326 455.676)">
      <stop stop-color="#D9F2A6" stop-opacity="0.72"/>
      <stop offset="1" stop-color="#D9F2A6" stop-opacity="0"/>
    </radialGradient>
    <radialGradient id="glowBlue" cx="0" cy="0" r="1" gradientUnits="userSpaceOnUse" gradientTransform="translate(467 939) rotate(-31.218) scale(436.287 342.866)">
      <stop stop-color="#7FC6FF" stop-opacity="0.45"/>
      <stop offset="1" stop-color="#7FC6FF" stop-opacity="0"/>
    </radialGradient>
    <linearGradient id="card" x1="396" y1="260" x2="1114" y2="799" gradientUnits="userSpaceOnUse">
      <stop stop-color="#101714"/>
      <stop offset="1" stop-color="#0A0F0D"/>
    </linearGradient>
    <linearGradient id="glass" x1="1040" y1="117" x2="1287" y2="367" gradientUnits="userSpaceOnUse">
      <stop stop-color="#E0F3B6" stop-opacity="0.23"/>
      <stop offset="1" stop-color="#7FC6FF" stop-opacity="0.02"/>
    </linearGradient>
    <linearGradient id="accentBar" x1="0" y1="0" x2="1" y2="0">
      <stop stop-color="#D8F19F"/>
      <stop offset="1" stop-color="#93D4FF"/>
    </linearGradient>
    <pattern id="grid" width="56" height="56" patternUnits="userSpaceOnUse">
      <path d="M56 0H0V56" stroke="white" stroke-opacity="0.06"/>
    </pattern>
    <filter id="blurLarge" x="-160" y="-160" width="1920" height="1520" filterUnits="userSpaceOnUse" color-interpolation-filters="sRGB">
      <feGaussianBlur stdDeviation="80"/>
    </filter>
  </defs>

  <rect width="1600" height="1200" fill="url(#bg)"/>
  <rect width="1600" height="1200" fill="url(#grid)" opacity="0.5"/>

  <g filter="url(#blurLarge)">
    <ellipse cx="1238" cy="205" rx="260" ry="210" fill="url(#glowLime)"/>
    <ellipse cx="470" cy="948" rx="242" ry="180" fill="url(#glowBlue)"/>
  </g>

  <g opacity="0.28">
    <path d="M147 816C296 692 507 667 654 742C783 807 925 834 1078 800C1233 765 1366 658 1450 531" stroke="#CFE89B" stroke-width="2"/>
    <path d="M172 884C343 770 551 760 694 828C824 889 945 910 1094 880C1245 849 1369 745 1438 643" stroke="#88C9FF" stroke-opacity="0.7" stroke-width="2"/>
    <path d="M301 330C435 239 587 221 714 275C840 328 960 349 1118 321C1247 298 1366 231 1455 141" stroke="white" stroke-opacity="0.2" stroke-width="2"/>
    <path d="M242 455C394 365 569 343 711 394C837 440 966 463 1118 434C1263 406 1375 334 1452 256" stroke="white" stroke-opacity="0.12" stroke-width="2"/>
  </g>

  <g opacity="0.44">
    <circle cx="1219" cy="206" r="86" stroke="#E3F5BE" stroke-width="1.5"/>
    <circle cx="1219" cy="206" r="142" stroke="#E3F5BE" stroke-opacity="0.48" stroke-width="1.5"/>
    <circle cx="1219" cy="206" r="198" stroke="#E3F5BE" stroke-opacity="0.24" stroke-width="1.5"/>
  </g>

  <g transform="translate(286 174)">
    <rect x="0" y="0" width="1012" height="670" rx="34" fill="url(#card)"/>
    <rect x="0.75" y="0.75" width="1010.5" height="668.5" rx="33.25" stroke="white" stroke-opacity="0.1" stroke-width="1.5"/>

    <rect x="42" y="42" width="280" height="126" rx="22" fill="black" fill-opacity="0.3"/>
    <rect x="42.75" y="42.75" width="278.5" height="124.5" rx="21.25" stroke="#E5F5C3" stroke-opacity="0.12" stroke-width="1.5"/>
    <text x="72" y="84" fill="#A0A7A3" font-family="Inter, Arial, sans-serif" font-size="18" letter-spacing="3">VOICE PRACTICE</text>
    <text x="72" y="122" fill="#F4F8F3" font-family="Syne, Inter, Arial, sans-serif" font-size="34" font-weight="700">Cafe conversation</text>
    <text x="72" y="149" fill="#B7BDBA" font-family="Inter, Arial, sans-serif" font-size="18">Real-time prompts, listening drills, review cards</text>

    <rect x="690" y="42" width="280" height="126" rx="22" fill="url(#glass)"/>
    <rect x="690.75" y="42.75" width="278.5" height="124.5" rx="21.25" stroke="#E5F5C3" stroke-opacity="0.14" stroke-width="1.5"/>
    <text x="724" y="86" fill="#A7AFA9" font-family="Inter, Arial, sans-serif" font-size="17" letter-spacing="2.2">TODAY</text>
    <text x="724" y="124" fill="#F4F8F3" font-family="Syne, Inter, Arial, sans-serif" font-size="48" font-weight="700">+185 XP</text>
    <text x="724" y="150" fill="#CCEE8A" font-family="Inter, Arial, sans-serif" font-size="18">7-day streak still active</text>

    <rect x="66" y="218" width="566" height="324" rx="30" fill="#0C1210"/>
    <rect x="66.75" y="218.75" width="564.5" height="322.5" rx="29.25" stroke="white" stroke-opacity="0.08" stroke-width="1.5"/>
    <text x="108" y="265" fill="#8E9792" font-family="Inter, Arial, sans-serif" font-size="17" letter-spacing="2.3">LIVE ROOM</text>
    <text x="108" y="304" fill="#F4F8F3" font-family="Syne, Inter, Arial, sans-serif" font-size="40" font-weight="700">Speak. Get corrected. Keep going.</text>

    <rect x="108" y="340" width="482" height="112" rx="24" fill="#101916"/>
    <rect x="108.75" y="340.75" width="480.5" height="110.5" rx="23.25" stroke="#CFE89B" stroke-opacity="0.12" stroke-width="1.5"/>
    <text x="138" y="383" fill="#D9E1DD" font-family="Inter, Arial, sans-serif" font-size="26">"Je voudrais un cafe et une table pres de la fenetre."</text>
    <text x="138" y="417" fill="#9FA7A3" font-family="Inter, Arial, sans-serif" font-size="20">Pronunciation hints, grammar corrections, spaced review later tonight</text>

    <path d="M120 489C152 465 184 445 216 443C249 441 277 467 309 481C339 494 366 493 397 471C430 446 460 410 493 404C533 397 561 435 590 469" stroke="url(#accentBar)" stroke-width="6" stroke-linecap="round"/>
    <circle cx="526" cy="422" r="11" fill="#D8F19F"/>
    <circle cx="526" cy="422" r="24" stroke="#D8F19F" stroke-opacity="0.18" stroke-width="2"/>

    <rect x="676" y="216" width="280" height="156" rx="24" fill="black" fill-opacity="0.32"/>
    <rect x="676.75" y="216.75" width="278.5" height="154.5" rx="23.25" stroke="white" stroke-opacity="0.08" stroke-width="1.5"/>
    <text x="709" y="260" fill="#8D958F" font-family="Inter, Arial, sans-serif" font-size="17" letter-spacing="2.2">ACTIVE LANGUAGES</text>
    <text x="709" y="300" fill="#F4F8F3" font-family="Syne, Inter, Arial, sans-serif" font-size="28" font-weight="700">Spanish B1</text>
    <rect x="709" y="320" width="214" height="10" rx="5" fill="#1C2420"/>
    <rect x="709" y="320" width="154" height="10" rx="5" fill="#D8F19F"/>
    <text x="709" y="353" fill="#B8C0BC" font-family="Inter, Arial, sans-serif" font-size="18">French A2, Japanese A1, German A2</text>

    <rect x="676" y="394" width="280" height="148" rx="24" fill="black" fill-opacity="0.32"/>
    <rect x="676.75" y="394.75" width="278.5" height="146.5" rx="23.25" stroke="white" stroke-opacity="0.08" stroke-width="1.5"/>
    <text x="709" y="438" fill="#8D958F" font-family="Inter, Arial, sans-serif" font-size="17" letter-spacing="2.2">FAST REVIEW</text>
    <rect x="709" y="462" width="86" height="42" rx="16" fill="#101916"/>
    <rect x="807" y="462" width="76" height="42" rx="16" fill="#111713"/>
    <rect x="894" y="462" width="29" height="42" rx="14.5" fill="#D8F19F"/>
    <text x="709" y="523" fill="#C9D1CD" font-family="Inter, Arial, sans-serif" font-size="18">Review due in 18 minutes</text>

    <rect x="120" y="590" width="190" height="70" rx="22" fill="#111A16"/>
    <rect x="120.75" y="590.75" width="188.5" height="68.5" rx="21.25" stroke="white" stroke-opacity="0.08" stroke-width="1.5"/>
    <text x="150" y="634" fill="#F4F8F3" font-family="Syne, Inter, Arial, sans-serif" font-size="24" font-weight="700">Hola</text>
    <text x="220" y="634" fill="#9BA39F" font-family="Inter, Arial, sans-serif" font-size="18">hello</text>

    <rect x="344" y="590" width="226" height="70" rx="22" fill="#111A16"/>
    <rect x="344.75" y="590.75" width="224.5" height="68.5" rx="21.25" stroke="white" stroke-opacity="0.08" stroke-width="1.5"/>
    <text x="374" y="634" fill="#F4F8F3" font-family="Syne, Inter, Arial, sans-serif" font-size="24" font-weight="700">Bonjour</text>
    <text x="482" y="634" fill="#9BA39F" font-family="Inter, Arial, sans-serif" font-size="18">good day</text>

    <rect x="604" y="590" width="252" height="70" rx="22" fill="#111A16"/>
    <rect x="604.75" y="590.75" width="250.5" height="68.5" rx="21.25" stroke="white" stroke-opacity="0.08" stroke-width="1.5"/>
    <text x="634" y="634" fill="#F4F8F3" font-family="Syne, Inter, Arial, sans-serif" font-size="24" font-weight="700">Konnichiwa</text>
    <text x="790" y="634" fill="#9BA39F" font-family="Inter, Arial, sans-serif" font-size="18">hello</text>
  </g>
</svg>
